<svg width="60" height="60" viewBox="0 0 60 60" fill="none" xmlns="http://www.w3.org/2000/svg">
<path d="M21.8992 28.72H13.5792C13.8192 27.1467 14.3259 25.9333 15.0992 25.08C15.8992 24.2 16.9526 23.76 18.2592 23.76C19.0326 23.76 19.6859 23.96 20.2192 24.36C20.7526 24.7333 21.1526 25.2933 21.4192 26.04C21.7126 26.76 21.8726 27.6533 21.8992 28.72Z" fill="#FEFEFD"/>
<path fill-rule="evenodd" clip-rule="evenodd" d="M30 60C46.5685 60 60 46.5685 60 30C60 13.4315 46.5685 0 30 0C13.4315 0 0 13.4315 0 30C0 46.5685 13.4315 60 30 60ZM12.8192 41.36C14.3126 42.2133 16.0192 42.64 17.9392 42.64C18.8459 42.64 19.8326 42.5067 20.8992 42.24C21.9659 42 23.0326 41.5333 24.0992 40.84C25.1659 40.1467 26.1392 39.16 27.0192 37.88L25.4992 36.48C24.9392 37.1733 24.2992 37.76 23.5792 38.24C22.8592 38.6933 22.1259 39.04 21.3792 39.28C20.6592 39.4933 19.9792 39.6 19.3392 39.6C17.8992 39.6 16.7392 39.24 15.8592 38.52C14.9792 37.7733 14.3392 36.7733 13.9392 35.52C13.5659 34.24 13.3792 32.7733 13.3792 31.12L26.8192 30.88C26.8459 29.12 26.6059 27.6267 26.0992 26.4C25.6192 25.1733 24.9659 24.1867 24.1392 23.44C23.3126 22.6933 22.3792 22.16 21.3392 21.84C20.2992 21.52 19.2192 21.36 18.0992 21.36C16.0992 21.36 14.3392 21.8667 12.8192 22.88C11.3259 23.8667 10.1659 25.1733 9.33922 26.8C8.51255 28.4267 8.09922 30.1733 8.09922 32.04C8.09922 34.2 8.51255 36.08 9.33922 37.68C10.1659 39.2533 11.3259 40.48 12.8192 41.36ZM29.9417 39.88V42H39.6617V39.44C39.3417 39.44 38.9284 39.4533 38.4217 39.48C37.9417 39.48 37.4884 39.5067 37.0617 39.56C37.1417 39 37.1817 38.4267 37.1817 37.84C37.2084 37.2267 37.2217 36.7067 37.2217 36.28L37.2617 28.4V27.36C37.2617 27.0133 37.2484 26.68 37.2217 26.36C37.7284 25.8267 38.3551 25.3867 39.1017 25.04C39.8484 24.6933 40.6084 24.5067 41.3817 24.48C42.6884 24.48 43.6217 24.96 44.1817 25.92C44.7684 26.8533 45.0617 28.28 45.0617 30.2L45.1017 35.88C45.1017 36.6533 45.0617 37.3467 44.9817 37.96C44.9017 38.5733 44.6884 39.0533 44.3417 39.4C44.0217 39.72 43.4751 39.88 42.7017 39.88V42H52.4217V39.44C52.1017 39.44 51.7017 39.4533 51.2217 39.48C50.7417 39.48 50.2751 39.5067 49.8217 39.56C49.9017 39 49.9417 38.4267 49.9417 37.84C49.9684 37.2267 49.9817 36.7067 49.9817 36.28V30.24C49.9817 27.1467 49.4617 24.8933 48.4217 23.48C47.3817 22.0667 45.6617 21.36 43.2617 21.36C42.6484 21.36 41.9817 21.4667 41.2617 21.68C40.5417 21.8933 39.8217 22.1867 39.1017 22.56C38.4084 22.9067 37.7951 23.3067 37.2617 23.76L37.1417 22.92C37.1151 22.7067 37.1017 22.5067 37.1017 22.32C37.1017 22.1333 37.0751 21.8933 37.0217 21.6H35.3417C35.1551 21.76 34.8484 21.9333 34.4217 22.12C33.9951 22.3067 33.3951 22.4667 32.6217 22.6C31.8484 22.7067 30.8617 22.76 29.6617 22.76V25.36C30.0084 25.3333 30.4484 25.3067 30.9817 25.28C31.5417 25.2533 32.0351 25.2267 32.4617 25.2C32.4084 25.76 32.3684 26.3067 32.3417 26.84C32.3151 27.3733 32.3017 27.88 32.3017 28.36V35.88C32.3017 36.6533 32.2617 37.3467 32.1817 37.96C32.1017 38.5733 31.9017 39.0533 31.5817 39.4C31.2617 39.72 30.7151 39.88 29.9417 39.88Z" fill="#FEFEFD"/>
</svg>
