<svg width="229" height="60" viewBox="0 0 229 60" fill="none" xmlns="http://www.w3.org/2000/svg">
<path d="M75.24 42.64C73.4533 42.64 71.8 42.24 70.28 41.44C68.7867 40.64 67.5867 39.48 66.68 37.96C65.8 36.4133 65.36 34.56 65.36 32.4C65.36 30.9333 65.6133 29.5467 66.12 28.24C66.6267 26.9067 67.3333 25.7333 68.24 24.72C69.1733 23.68 70.28 22.8667 71.56 22.28C72.84 21.6667 74.2533 21.36 75.8 21.36C77.4267 21.36 78.8 21.6133 79.92 22.12C81.04 22.6 81.8933 23.2533 82.48 24.08C83.0667 24.88 83.36 25.7333 83.36 26.64C83.36 27.36 83.1467 27.9867 82.72 28.52C82.32 29.0533 81.7333 29.3333 80.96 29.36C80.0533 29.3867 79.4133 29.1333 79.04 28.6C78.6933 28.04 78.52 27.52 78.52 27.04C78.52 26.7733 78.56 26.4933 78.64 26.2C78.72 25.88 78.8533 25.5867 79.04 25.32C78.8533 24.84 78.5467 24.4933 78.12 24.28C77.6933 24.04 77.2533 23.88 76.8 23.8C76.3467 23.72 75.9867 23.6933 75.72 23.72C74.2533 23.7733 73.04 24.44 72.08 25.72C71.12 27 70.64 28.8667 70.64 31.32C70.64 32.7867 70.84 34.1467 71.24 35.4C71.6667 36.6267 72.3067 37.6267 73.16 38.4C74.0133 39.1467 75.1067 39.5333 76.44 39.56C77.6133 39.5867 78.7467 39.3067 79.84 38.72C80.9333 38.1067 81.8267 37.32 82.52 36.36L84.12 37.84C83.24 39.0933 82.2933 40.0667 81.28 40.76C80.2667 41.4533 79.24 41.9333 78.2 42.2C77.1867 42.4933 76.2 42.64 75.24 42.64Z" fill="#FEFEFD"/>
<path d="M96.3794 42.64C94.486 42.64 92.766 42.2267 91.2194 41.4C89.6727 40.5467 88.446 39.36 87.5394 37.84C86.6594 36.2933 86.2194 34.4933 86.2194 32.44C86.2194 30.28 86.6727 28.36 87.5794 26.68C88.486 25 89.6994 23.6933 91.2194 22.76C92.766 21.8267 94.4594 21.36 96.2994 21.36C98.1927 21.36 99.8994 21.7867 101.419 22.64C102.939 23.4933 104.139 24.68 105.019 26.2C105.926 27.72 106.379 29.52 106.379 31.6C106.379 33.7867 105.939 35.72 105.059 37.4C104.206 39.0533 103.019 40.3467 101.499 41.28C100.006 42.1867 98.2994 42.64 96.3794 42.64ZM96.5794 40.2C97.7794 40.2 98.6994 39.8267 99.3394 39.08C99.9794 38.3333 100.419 37.3867 100.659 36.24C100.926 35.0667 101.059 33.8667 101.059 32.64C101.059 31.6 100.966 30.5467 100.779 29.48C100.619 28.4133 100.353 27.4533 99.9794 26.6C99.606 25.72 99.1127 25.0267 98.4994 24.52C97.886 23.9867 97.1394 23.72 96.2594 23.72C95.086 23.7467 94.1527 24.1333 93.4594 24.88C92.766 25.6267 92.2594 26.5733 91.9394 27.72C91.646 28.8667 91.4994 30.08 91.4994 31.36C91.4994 32.8 91.6727 34.2133 92.0194 35.6C92.366 36.96 92.9127 38.08 93.6594 38.96C94.406 39.8133 95.3794 40.2267 96.5794 40.2Z" fill="#FEFEFD"/>
<path d="M109.43 42V39.88C110.203 39.88 110.75 39.72 111.07 39.4C111.39 39.0533 111.59 38.5733 111.67 37.96C111.75 37.3467 111.79 36.6533 111.79 35.88V28.36C111.79 27.88 111.803 27.3733 111.83 26.84C111.857 26.3067 111.897 25.76 111.95 25.2C111.523 25.2267 111.03 25.2533 110.47 25.28C109.937 25.3067 109.497 25.3333 109.15 25.36V22.76C110.35 22.76 111.337 22.7067 112.11 22.6C112.883 22.4667 113.483 22.3067 113.91 22.12C114.337 21.9333 114.643 21.76 114.83 21.6H116.51C116.563 21.8933 116.59 22.1333 116.59 22.32C116.59 22.5067 116.603 22.7067 116.63 22.92C116.657 23.1067 116.697 23.3867 116.75 23.76C117.283 23.3067 117.897 22.9067 118.59 22.56C119.31 22.1867 120.03 21.8933 120.75 21.68C121.47 21.4667 122.137 21.36 122.75 21.36C125.15 21.36 126.87 22.0667 127.91 23.48C128.95 24.8933 129.47 27.1467 129.47 30.24V36.28C129.47 36.7067 129.457 37.2267 129.43 37.84C129.43 38.4267 129.39 39 129.31 39.56C129.763 39.5067 130.23 39.48 130.71 39.48C131.19 39.4533 131.59 39.44 131.91 39.44V42H122.19V39.88C122.963 39.88 123.51 39.72 123.83 39.4C124.177 39.0533 124.39 38.5733 124.47 37.96C124.55 37.3467 124.59 36.6533 124.59 35.88L124.55 30.2C124.55 28.28 124.257 26.8533 123.67 25.92C123.11 24.96 122.177 24.48 120.87 24.48C120.097 24.5067 119.337 24.6933 118.59 25.04C117.843 25.3867 117.217 25.8267 116.71 26.36C116.737 26.68 116.75 27.0133 116.75 27.36C116.75 27.7067 116.75 28.0533 116.75 28.4L116.71 36.28C116.71 36.7067 116.697 37.2267 116.67 37.84C116.67 38.4267 116.63 39 116.55 39.56C116.977 39.5067 117.43 39.48 117.91 39.48C118.417 39.4533 118.83 39.44 119.15 39.44V42H109.43Z" fill="#FEFEFD"/>
<path d="M141.996 42.64C141.249 42.64 140.516 42.5467 139.796 42.36C139.102 42.1733 138.462 41.8267 137.876 41.32C137.316 40.8133 136.862 40.0667 136.516 39.08C136.169 38.0667 135.996 36.7333 135.996 35.08L136.076 24.76L133.236 24.8V22C134.036 21.9733 134.809 21.7067 135.556 21.2C136.302 20.6667 136.956 19.9733 137.516 19.12C138.076 18.2667 138.449 17.36 138.636 16.4H141.076L141.036 22H146.676V24.56L141.036 24.68L140.996 34.96C140.996 35.76 141.062 36.5067 141.196 37.2C141.356 37.8667 141.622 38.4 141.996 38.8C142.396 39.2 142.929 39.4 143.596 39.4C144.102 39.4 144.676 39.24 145.316 38.92C145.982 38.6 146.649 37.96 147.316 37L148.956 38.48C148.289 39.4933 147.596 40.28 146.876 40.84C146.182 41.4 145.502 41.8133 144.836 42.08C144.196 42.3467 143.622 42.5067 143.116 42.56C142.609 42.6133 142.236 42.64 141.996 42.64Z" fill="#FEFEFD"/>
<path d="M161.848 42C161.768 41.6 161.714 41.2667 161.688 41C161.688 40.7067 161.674 40.3733 161.648 40C160.741 40.9067 159.768 41.5733 158.728 42C157.714 42.4267 156.661 42.64 155.568 42.64C153.754 42.64 152.354 42.1467 151.368 41.16C150.408 40.1733 149.928 38.96 149.928 37.52C149.928 36.24 150.274 35.16 150.967 34.28C151.661 33.3733 152.568 32.64 153.688 32.08C154.808 31.4933 156.048 31.0533 157.408 30.76C158.768 30.44 160.114 30.2667 161.448 30.24V28.04C161.448 27.2667 161.354 26.56 161.168 25.92C161.008 25.2533 160.701 24.7333 160.247 24.36C159.794 23.96 159.127 23.76 158.247 23.76C157.661 23.7867 157.061 23.92 156.448 24.16C155.861 24.3733 155.394 24.72 155.048 25.2C155.261 25.44 155.394 25.7067 155.448 26C155.501 26.2667 155.528 26.5067 155.528 26.72C155.528 27.2 155.341 27.7067 154.967 28.24C154.594 28.7467 153.994 28.9867 153.168 28.96C152.448 28.9333 151.888 28.68 151.488 28.2C151.114 27.72 150.928 27.1467 150.928 26.48C150.928 25.4667 151.288 24.5867 152.008 23.84C152.754 23.0667 153.754 22.4667 155.008 22.04C156.261 21.5867 157.661 21.36 159.208 21.36C161.501 21.36 163.261 21.96 164.488 23.16C165.714 24.36 166.314 26.28 166.288 28.92C166.288 29.8533 166.288 30.7067 166.288 31.48C166.288 32.2267 166.274 32.9867 166.247 33.76C166.247 34.5067 166.247 35.3467 166.247 36.28C166.247 36.68 166.234 37.1867 166.208 37.8C166.181 38.3867 166.141 38.9733 166.088 39.56C166.568 39.5067 167.048 39.48 167.528 39.48C168.034 39.4533 168.448 39.4267 168.768 39.4V42H161.848ZM161.408 32.6C160.608 32.6533 159.821 32.7867 159.048 33C158.274 33.1867 157.581 33.4533 156.967 33.8C156.354 34.1467 155.861 34.5867 155.488 35.12C155.141 35.6267 154.981 36.2133 155.008 36.88C155.034 37.7067 155.301 38.32 155.808 38.72C156.314 39.0933 156.901 39.28 157.568 39.28C158.341 39.28 159.034 39.12 159.648 38.8C160.288 38.48 160.874 38.0533 161.408 37.52C161.408 37.2533 161.408 36.9733 161.408 36.68C161.408 36.3867 161.408 36.0933 161.408 35.8C161.408 35.4267 161.408 34.96 161.408 34.4C161.408 33.84 161.408 33.24 161.408 32.6Z" fill="#FEFEFD"/>
<path d="M180.787 42.64C179 42.64 177.347 42.24 175.827 41.44C174.334 40.64 173.134 39.48 172.227 37.96C171.347 36.4133 170.907 34.56 170.907 32.4C170.907 30.9333 171.16 29.5467 171.667 28.24C172.174 26.9067 172.88 25.7333 173.787 24.72C174.72 23.68 175.827 22.8667 177.107 22.28C178.387 21.6667 179.8 21.36 181.347 21.36C182.974 21.36 184.347 21.6133 185.467 22.12C186.587 22.6 187.44 23.2533 188.027 24.08C188.614 24.88 188.907 25.7333 188.907 26.64C188.907 27.36 188.694 27.9867 188.267 28.52C187.867 29.0533 187.28 29.3333 186.507 29.36C185.6 29.3867 184.96 29.1333 184.587 28.6C184.24 28.04 184.067 27.52 184.067 27.04C184.067 26.7733 184.107 26.4933 184.187 26.2C184.267 25.88 184.4 25.5867 184.587 25.32C184.4 24.84 184.094 24.4933 183.667 24.28C183.24 24.04 182.8 23.88 182.347 23.8C181.894 23.72 181.534 23.6933 181.267 23.72C179.8 23.7733 178.587 24.44 177.627 25.72C176.667 27 176.187 28.8667 176.187 31.32C176.187 32.7867 176.387 34.1467 176.787 35.4C177.214 36.6267 177.854 37.6267 178.707 38.4C179.56 39.1467 180.654 39.5333 181.987 39.56C183.16 39.5867 184.294 39.3067 185.387 38.72C186.48 38.1067 187.374 37.32 188.067 36.36L189.667 37.84C188.787 39.0933 187.84 40.0667 186.827 40.76C185.814 41.4533 184.787 41.9333 183.747 42.2C182.734 42.4933 181.747 42.64 180.787 42.64Z" fill="#FEFEFD"/>
<path d="M199.886 42.64C199.14 42.64 198.406 42.5467 197.686 42.36C196.993 42.1733 196.353 41.8267 195.766 41.32C195.206 40.8133 194.753 40.0667 194.406 39.08C194.06 38.0667 193.886 36.7333 193.886 35.08L193.966 24.76L191.126 24.8V22C191.926 21.9733 192.7 21.7067 193.446 21.2C194.193 20.6667 194.846 19.9733 195.406 19.12C195.966 18.2667 196.34 17.36 196.526 16.4H198.966L198.926 22H204.566V24.56L198.926 24.68L198.886 34.96C198.886 35.76 198.953 36.5067 199.086 37.2C199.246 37.8667 199.513 38.4 199.886 38.8C200.286 39.2 200.82 39.4 201.486 39.4C201.993 39.4 202.566 39.24 203.206 38.92C203.873 38.6 204.54 37.96 205.206 37L206.846 38.48C206.18 39.4933 205.486 40.28 204.766 40.84C204.073 41.4 203.393 41.8133 202.726 42.08C202.086 42.3467 201.513 42.5067 201.006 42.56C200.5 42.6133 200.126 42.64 199.886 42.64Z" fill="#FEFEFD"/>
<path d="M218.098 42.64C216.205 42.64 214.485 42.2267 212.938 41.4C211.391 40.5467 210.165 39.36 209.258 37.84C208.378 36.2933 207.938 34.4933 207.938 32.44C207.938 30.28 208.391 28.36 209.298 26.68C210.205 25 211.418 23.6933 212.938 22.76C214.485 21.8267 216.178 21.36 218.018 21.36C219.911 21.36 221.618 21.7867 223.138 22.64C224.658 23.4933 225.858 24.68 226.738 26.2C227.645 27.72 228.098 29.52 228.098 31.6C228.098 33.7867 227.658 35.72 226.778 37.4C225.925 39.0533 224.738 40.3467 223.218 41.28C221.725 42.1867 220.018 42.64 218.098 42.64ZM218.298 40.2C219.498 40.2 220.418 39.8267 221.058 39.08C221.698 38.3333 222.138 37.3867 222.378 36.24C222.645 35.0667 222.778 33.8667 222.778 32.64C222.778 31.6 222.685 30.5467 222.498 29.48C222.338 28.4133 222.071 27.4533 221.698 26.6C221.325 25.72 220.831 25.0267 220.218 24.52C219.605 23.9867 218.858 23.72 217.978 23.72C216.805 23.7467 215.871 24.1333 215.178 24.88C214.485 25.6267 213.978 26.5733 213.658 27.72C213.365 28.8667 213.218 30.08 213.218 31.36C213.218 32.8 213.391 34.2133 213.738 35.6C214.085 36.96 214.631 38.08 215.378 38.96C216.125 39.8133 217.098 40.2267 218.298 40.2Z" fill="#FEFEFD"/>
<path d="M21.8992 28.72H13.5792C13.8192 27.1467 14.3259 25.9333 15.0992 25.08C15.8992 24.2 16.9526 23.76 18.2592 23.76C19.0326 23.76 19.6859 23.96 20.2192 24.36C20.7526 24.7333 21.1526 25.2933 21.4192 26.04C21.7126 26.76 21.8726 27.6533 21.8992 28.72Z" fill="#FEFEFD"/>
<path fill-rule="evenodd" clip-rule="evenodd" d="M30 60C46.5685 60 60 46.5685 60 30C60 13.4315 46.5685 0 30 0C13.4315 0 0 13.4315 0 30C0 46.5685 13.4315 60 30 60ZM12.8192 41.36C14.3126 42.2133 16.0192 42.64 17.9392 42.64C18.8459 42.64 19.8326 42.5067 20.8992 42.24C21.9659 42 23.0326 41.5333 24.0992 40.84C25.1659 40.1467 26.1392 39.16 27.0192 37.88L25.4992 36.48C24.9392 37.1733 24.2992 37.76 23.5792 38.24C22.8592 38.6933 22.1259 39.04 21.3792 39.28C20.6592 39.4933 19.9792 39.6 19.3392 39.6C17.8992 39.6 16.7392 39.24 15.8592 38.52C14.9792 37.7733 14.3392 36.7733 13.9392 35.52C13.5659 34.24 13.3792 32.7733 13.3792 31.12L26.8192 30.88C26.8459 29.12 26.6059 27.6267 26.0992 26.4C25.6192 25.1733 24.9659 24.1867 24.1392 23.44C23.3126 22.6933 22.3792 22.16 21.3392 21.84C20.2992 21.52 19.2192 21.36 18.0992 21.36C16.0992 21.36 14.3392 21.8667 12.8192 22.88C11.3259 23.8667 10.1659 25.1733 9.33922 26.8C8.51255 28.4267 8.09922 30.1733 8.09922 32.04C8.09922 34.2 8.51255 36.08 9.33922 37.68C10.1659 39.2533 11.3259 40.48 12.8192 41.36ZM29.9417 39.88V42H39.6617V39.44C39.3417 39.44 38.9284 39.4533 38.4217 39.48C37.9417 39.48 37.4884 39.5067 37.0617 39.56C37.1417 39 37.1817 38.4267 37.1817 37.84C37.2084 37.2267 37.2217 36.7067 37.2217 36.28L37.2617 28.4V27.36C37.2617 27.0133 37.2484 26.68 37.2217 26.36C37.7284 25.8267 38.3551 25.3867 39.1017 25.04C39.8484 24.6933 40.6084 24.5067 41.3817 24.48C42.6884 24.48 43.6217 24.96 44.1817 25.92C44.7684 26.8533 45.0617 28.28 45.0617 30.2L45.1017 35.88C45.1017 36.6533 45.0617 37.3467 44.9817 37.96C44.9017 38.5733 44.6884 39.0533 44.3417 39.4C44.0217 39.72 43.4751 39.88 42.7017 39.88V42H52.4217V39.44C52.1017 39.44 51.7017 39.4533 51.2217 39.48C50.7417 39.48 50.2751 39.5067 49.8217 39.56C49.9017 39 49.9417 38.4267 49.9417 37.84C49.9684 37.2267 49.9817 36.7067 49.9817 36.28V30.24C49.9817 27.1467 49.4617 24.8933 48.4217 23.48C47.3817 22.0667 45.6617 21.36 43.2617 21.36C42.6484 21.36 41.9817 21.4667 41.2617 21.68C40.5417 21.8933 39.8217 22.1867 39.1017 22.56C38.4084 22.9067 37.7951 23.3067 37.2617 23.76L37.1417 22.92C37.1151 22.7067 37.1017 22.5067 37.1017 22.32C37.1017 22.1333 37.0751 21.8933 37.0217 21.6H35.3417C35.1551 21.76 34.8484 21.9333 34.4217 22.12C33.9951 22.3067 33.3951 22.4667 32.6217 22.6C31.8484 22.7067 30.8617 22.76 29.6617 22.76V25.36C30.0084 25.3333 30.4484 25.3067 30.9817 25.28C31.5417 25.2533 32.0351 25.2267 32.4617 25.2C32.4084 25.76 32.3684 26.3067 32.3417 26.84C32.3151 27.3733 32.3017 27.88 32.3017 28.36V35.88C32.3017 36.6533 32.2617 37.3467 32.1817 37.96C32.1017 38.5733 31.9017 39.0533 31.5817 39.4C31.2617 39.72 30.7151 39.88 29.9417 39.88Z" fill="#FEFEFD"/>
</svg>
