<svg width="152" height="48" viewBox="0 0 152 48" fill="none" xmlns="http://www.w3.org/2000/svg">
<path d="M18.861 24.032H13.869C14.013 23.088 14.317 22.36 14.781 21.848C15.261 21.32 15.893 21.056 16.677 21.056C17.141 21.056 17.533 21.176 17.853 21.416C18.173 21.64 18.413 21.976 18.573 22.424C18.749 22.856 18.845 23.392 18.861 24.032Z" fill="#3F9783"/>
<path fill-rule="evenodd" clip-rule="evenodd" d="M8 0C3.58172 0 0 3.58172 0 8V40C0 44.4183 3.58172 48 8 48H40C44.4183 48 48 44.4183 48 40V8C48 3.58172 44.4183 0 40 0H8ZM13.413 31.616C14.309 32.128 15.333 32.384 16.485 32.384C17.029 32.384 17.621 32.304 18.261 32.144C18.901 32 19.541 31.72 20.181 31.304C20.821 30.888 21.405 30.296 21.933 29.528L21.021 28.688C20.685 29.104 20.301 29.456 19.869 29.744C19.437 30.016 18.997 30.224 18.549 30.368C18.117 30.496 17.709 30.56 17.325 30.56C16.461 30.56 15.765 30.344 15.237 29.912C14.709 29.464 14.325 28.864 14.085 28.112C13.861 27.344 13.749 26.464 13.749 25.472L21.813 25.328C21.829 24.272 21.685 23.376 21.381 22.64C21.093 21.904 20.701 21.312 20.205 20.864C19.709 20.416 19.149 20.096 18.525 19.904C17.901 19.712 17.253 19.616 16.581 19.616C15.381 19.616 14.325 19.92 13.413 20.528C12.517 21.12 11.821 21.904 11.325 22.88C10.829 23.856 10.581 24.904 10.581 26.024C10.581 27.32 10.829 28.448 11.325 29.408C11.821 30.352 12.517 31.088 13.413 31.616ZM23.6865 30.728V32H29.5185V30.464C29.3265 30.464 29.0785 30.472 28.7745 30.488C28.4865 30.488 28.2145 30.504 27.9585 30.536C28.0065 30.2 28.0305 29.856 28.0305 29.504C28.0465 29.136 28.0545 28.824 28.0545 28.568L28.0785 23.84V23.216C28.0785 23.008 28.0705 22.808 28.0545 22.616C28.3585 22.296 28.7345 22.032 29.1825 21.824C29.6305 21.616 30.0865 21.504 30.5505 21.488C31.3345 21.488 31.8945 21.776 32.2305 22.352C32.5825 22.912 32.7585 23.768 32.7585 24.92L32.7825 28.328C32.7825 28.792 32.7585 29.208 32.7105 29.576C32.6625 29.944 32.5345 30.232 32.3265 30.44C32.1345 30.632 31.8065 30.728 31.3425 30.728V32H37.1745V30.464C36.9825 30.464 36.7425 30.472 36.4545 30.488C36.1665 30.488 35.8865 30.504 35.6145 30.536C35.6625 30.2 35.6865 29.856 35.6865 29.504C35.7025 29.136 35.7105 28.824 35.7105 28.568V24.944C35.7105 23.088 35.3985 21.736 34.7745 20.888C34.1505 20.04 33.1185 19.616 31.6785 19.616C31.3105 19.616 30.9105 19.68 30.4785 19.808C30.0465 19.936 29.6145 20.112 29.1825 20.336C28.7665 20.544 28.3985 20.784 28.0785 21.056L28.0065 20.552C27.9905 20.424 27.9825 20.304 27.9825 20.192C27.9825 20.08 27.9665 19.936 27.9345 19.76H26.9265C26.8145 19.856 26.6305 19.96 26.3745 20.072C26.1185 20.184 25.7585 20.28 25.2945 20.36C24.8305 20.424 24.2385 20.456 23.5185 20.456V22.016C23.7265 22 23.9905 21.984 24.3105 21.968C24.6465 21.952 24.9425 21.936 25.1985 21.92C25.1665 22.256 25.1425 22.584 25.1265 22.904C25.1105 23.224 25.1025 23.528 25.1025 23.816V28.328C25.1025 28.792 25.0785 29.208 25.0305 29.576C24.9825 29.944 24.8625 30.232 24.6705 30.44C24.4785 30.632 24.1505 30.728 23.6865 30.728Z" fill="#3F9783"/>
<path d="M59.928 31.872C58.856 31.872 57.864 31.632 56.952 31.152C56.056 30.672 55.336 29.976 54.792 29.064C54.264 28.136 54 27.024 54 25.728C54 24.848 54.152 24.016 54.456 23.232C54.76 22.432 55.184 21.728 55.728 21.12C56.288 20.496 56.952 20.008 57.72 19.656C58.488 19.288 59.336 19.104 60.264 19.104C61.24 19.104 62.064 19.256 62.736 19.56C63.408 19.848 63.92 20.24 64.272 20.736C64.624 21.216 64.8 21.728 64.8 22.272C64.8 22.704 64.672 23.08 64.416 23.4C64.176 23.72 63.824 23.888 63.36 23.904C62.816 23.92 62.432 23.768 62.208 23.448C62 23.112 61.896 22.8 61.896 22.512C61.896 22.352 61.92 22.184 61.968 22.008C62.016 21.816 62.096 21.64 62.208 21.48C62.096 21.192 61.912 20.984 61.656 20.856C61.4 20.712 61.136 20.616 60.864 20.568C60.592 20.52 60.376 20.504 60.216 20.52C59.336 20.552 58.608 20.952 58.032 21.72C57.456 22.488 57.168 23.608 57.168 25.08C57.168 25.96 57.288 26.776 57.528 27.528C57.784 28.264 58.168 28.864 58.68 29.328C59.192 29.776 59.848 30.008 60.648 30.024C61.352 30.04 62.032 29.872 62.688 29.52C63.344 29.152 63.88 28.68 64.296 28.104L65.256 28.992C64.728 29.744 64.16 30.328 63.552 30.744C62.944 31.16 62.328 31.448 61.704 31.608C61.096 31.784 60.504 31.872 59.928 31.872Z" fill="#3F9783"/>
<path d="M72.6116 31.872C71.4756 31.872 70.4436 31.624 69.5156 31.128C68.5876 30.616 67.8516 29.904 67.3076 28.992C66.7796 28.064 66.5156 26.984 66.5156 25.752C66.5156 24.456 66.7876 23.304 67.3316 22.296C67.8756 21.288 68.6036 20.504 69.5156 19.944C70.4436 19.384 71.4596 19.104 72.5636 19.104C73.6996 19.104 74.7236 19.36 75.6356 19.872C76.5476 20.384 77.2676 21.096 77.7956 22.008C78.3396 22.92 78.6116 24 78.6116 25.248C78.6116 26.56 78.3476 27.72 77.8196 28.728C77.3076 29.72 76.5956 30.496 75.6836 31.056C74.7876 31.6 73.7636 31.872 72.6116 31.872ZM72.7316 30.408C73.4516 30.408 74.0036 30.184 74.3876 29.736C74.7716 29.288 75.0356 28.72 75.1796 28.032C75.3396 27.328 75.4196 26.608 75.4196 25.872C75.4196 25.248 75.3636 24.616 75.2516 23.976C75.1556 23.336 74.9956 22.76 74.7716 22.248C74.5476 21.72 74.2516 21.304 73.8836 21C73.5156 20.68 73.0676 20.52 72.5396 20.52C71.8356 20.536 71.2756 20.768 70.8596 21.216C70.4436 21.664 70.1396 22.232 69.9476 22.92C69.7716 23.608 69.6836 24.336 69.6836 25.104C69.6836 25.968 69.7876 26.816 69.9956 27.648C70.2036 28.464 70.5316 29.136 70.9796 29.664C71.4276 30.176 72.0116 30.424 72.7316 30.408Z" fill="#3F9783"/>
<path d="M80.442 31.488V30.216C80.906 30.216 81.234 30.12 81.426 29.928C81.618 29.72 81.738 29.432 81.786 29.064C81.834 28.696 81.858 28.28 81.858 27.816V23.304C81.858 23.016 81.866 22.712 81.882 22.392C81.898 22.072 81.922 21.744 81.954 21.408C81.698 21.424 81.402 21.44 81.066 21.456C80.746 21.472 80.482 21.488 80.274 21.504V19.944C80.994 19.944 81.586 19.912 82.05 19.848C82.514 19.768 82.874 19.672 83.13 19.56C83.386 19.448 83.57 19.344 83.682 19.248H84.69C84.722 19.424 84.738 19.568 84.738 19.68C84.738 19.792 84.746 19.912 84.762 20.04C84.778 20.152 84.802 20.32 84.834 20.544C85.154 20.272 85.522 20.032 85.938 19.824C86.37 19.6 86.802 19.424 87.234 19.296C87.666 19.168 88.066 19.104 88.434 19.104C89.874 19.104 90.906 19.528 91.53 20.376C92.154 21.224 92.466 22.576 92.466 24.432V28.056C92.466 28.312 92.458 28.624 92.442 28.992C92.442 29.344 92.418 29.688 92.37 30.024C92.642 29.992 92.922 29.976 93.21 29.976C93.498 29.96 93.738 29.952 93.93 29.952V31.488H88.098V30.216C88.562 30.216 88.89 30.12 89.082 29.928C89.29 29.72 89.418 29.432 89.466 29.064C89.514 28.696 89.538 28.28 89.538 27.816L89.514 24.408C89.514 23.256 89.338 22.4 88.986 21.84C88.65 21.264 88.09 20.976 87.306 20.976C86.842 20.992 86.386 21.104 85.938 21.312C85.49 21.52 85.114 21.784 84.81 22.104C84.826 22.296 84.834 22.496 84.834 22.704C84.834 22.912 84.834 23.12 84.834 23.328L84.81 28.056C84.81 28.312 84.802 28.624 84.786 28.992C84.786 29.344 84.762 29.688 84.714 30.024C84.97 29.992 85.242 29.976 85.53 29.976C85.834 29.96 86.082 29.952 86.274 29.952V31.488H80.442Z" fill="#3F9783"/>
<path d="M99.9814 31.872C99.5334 31.872 99.0934 31.816 98.6614 31.704C98.2454 31.592 97.8614 31.384 97.5094 31.08C97.1734 30.776 96.9014 30.328 96.6934 29.736C96.4854 29.128 96.3814 28.328 96.3814 27.336L96.4294 21.144L94.7254 21.168V19.488C95.2054 19.472 95.6694 19.312 96.1174 19.008C96.5654 18.688 96.9574 18.272 97.2934 17.76C97.6294 17.248 97.8534 16.704 97.9654 16.128H99.4294L99.4054 19.488H102.789V21.024L99.4054 21.096L99.3814 27.264C99.3814 27.744 99.4214 28.192 99.5014 28.608C99.5974 29.008 99.7574 29.328 99.9814 29.568C100.221 29.808 100.541 29.928 100.941 29.928C101.245 29.928 101.589 29.832 101.973 29.64C102.373 29.448 102.773 29.064 103.173 28.488L104.157 29.376C103.757 29.984 103.341 30.456 102.909 30.792C102.493 31.128 102.085 31.376 101.685 31.536C101.301 31.696 100.957 31.792 100.653 31.824C100.349 31.856 100.125 31.872 99.9814 31.872Z" fill="#3F9783"/>
<path d="M111.893 31.488C111.845 31.248 111.813 31.048 111.797 30.888C111.797 30.712 111.788 30.512 111.772 30.288C111.228 30.832 110.645 31.232 110.021 31.488C109.413 31.744 108.781 31.872 108.125 31.872C107.037 31.872 106.196 31.576 105.604 30.984C105.028 30.392 104.741 29.664 104.741 28.8C104.741 28.032 104.949 27.384 105.365 26.856C105.781 26.312 106.324 25.872 106.996 25.536C107.668 25.184 108.413 24.92 109.229 24.744C110.045 24.552 110.853 24.448 111.653 24.432V23.112C111.653 22.648 111.597 22.224 111.485 21.84C111.389 21.44 111.205 21.128 110.933 20.904C110.661 20.664 110.261 20.544 109.733 20.544C109.381 20.56 109.021 20.64 108.653 20.784C108.301 20.912 108.02 21.12 107.812 21.408C107.941 21.552 108.021 21.712 108.053 21.888C108.085 22.048 108.101 22.192 108.101 22.32C108.101 22.608 107.989 22.912 107.765 23.232C107.541 23.536 107.181 23.68 106.685 23.664C106.253 23.648 105.916 23.496 105.676 23.208C105.452 22.92 105.34 22.576 105.34 22.176C105.34 21.568 105.557 21.04 105.989 20.592C106.437 20.128 107.037 19.768 107.789 19.512C108.541 19.24 109.381 19.104 110.309 19.104C111.685 19.104 112.741 19.464 113.477 20.184C114.213 20.904 114.573 22.056 114.557 23.64C114.557 24.2 114.557 24.712 114.557 25.176C114.557 25.624 114.549 26.08 114.533 26.544C114.533 26.992 114.533 27.496 114.533 28.056C114.533 28.296 114.524 28.6 114.508 28.968C114.492 29.32 114.469 29.672 114.437 30.024C114.725 29.992 115.012 29.976 115.3 29.976C115.604 29.96 115.853 29.944 116.045 29.928V31.488H111.893ZM111.629 25.848C111.149 25.88 110.677 25.96 110.213 26.088C109.749 26.2 109.333 26.36 108.965 26.568C108.597 26.776 108.301 27.04 108.076 27.36C107.868 27.664 107.773 28.016 107.789 28.416C107.805 28.912 107.965 29.28 108.269 29.52C108.573 29.744 108.925 29.856 109.325 29.856C109.789 29.856 110.205 29.76 110.573 29.568C110.957 29.376 111.309 29.12 111.629 28.8C111.629 28.64 111.629 28.472 111.629 28.296C111.629 28.12 111.629 27.944 111.629 27.768C111.629 27.544 111.629 27.264 111.629 26.928C111.629 26.592 111.629 26.232 111.629 25.848Z" fill="#3F9783"/>
<path d="M123.256 31.872C122.184 31.872 121.192 31.632 120.28 31.152C119.384 30.672 118.664 29.976 118.12 29.064C117.592 28.136 117.328 27.024 117.328 25.728C117.328 24.848 117.48 24.016 117.784 23.232C118.088 22.432 118.512 21.728 119.056 21.12C119.616 20.496 120.28 20.008 121.048 19.656C121.816 19.288 122.664 19.104 123.592 19.104C124.568 19.104 125.392 19.256 126.064 19.56C126.736 19.848 127.248 20.24 127.6 20.736C127.952 21.216 128.128 21.728 128.128 22.272C128.128 22.704 128 23.08 127.744 23.4C127.504 23.72 127.152 23.888 126.688 23.904C126.144 23.92 125.76 23.768 125.536 23.448C125.328 23.112 125.224 22.8 125.224 22.512C125.224 22.352 125.248 22.184 125.296 22.008C125.344 21.816 125.424 21.64 125.536 21.48C125.424 21.192 125.24 20.984 124.984 20.856C124.728 20.712 124.464 20.616 124.192 20.568C123.92 20.52 123.704 20.504 123.544 20.52C122.664 20.552 121.936 20.952 121.36 21.72C120.784 22.488 120.496 23.608 120.496 25.08C120.496 25.96 120.616 26.776 120.856 27.528C121.112 28.264 121.496 28.864 122.008 29.328C122.52 29.776 123.176 30.008 123.976 30.024C124.68 30.04 125.36 29.872 126.016 29.52C126.672 29.152 127.208 28.68 127.624 28.104L128.584 28.992C128.056 29.744 127.488 30.328 126.88 30.744C126.272 31.16 125.656 31.448 125.032 31.608C124.424 31.784 123.832 31.872 123.256 31.872Z" fill="#3F9783"/>
<path d="M134.716 31.872C134.268 31.872 133.828 31.816 133.396 31.704C132.98 31.592 132.596 31.384 132.244 31.08C131.908 30.776 131.636 30.328 131.428 29.736C131.22 29.128 131.116 28.328 131.116 27.336L131.164 21.144L129.46 21.168V19.488C129.94 19.472 130.404 19.312 130.852 19.008C131.3 18.688 131.692 18.272 132.028 17.76C132.364 17.248 132.588 16.704 132.7 16.128H134.164L134.14 19.488H137.524V21.024L134.14 21.096L134.116 27.264C134.116 27.744 134.156 28.192 134.236 28.608C134.332 29.008 134.492 29.328 134.716 29.568C134.956 29.808 135.276 29.928 135.676 29.928C135.98 29.928 136.324 29.832 136.708 29.64C137.108 29.448 137.508 29.064 137.908 28.488L138.892 29.376C138.492 29.984 138.076 30.456 137.644 30.792C137.228 31.128 136.82 31.376 136.42 31.536C136.036 31.696 135.692 31.792 135.388 31.824C135.084 31.856 134.86 31.872 134.716 31.872Z" fill="#3F9783"/>
<path d="M145.643 31.872C144.507 31.872 143.475 31.624 142.547 31.128C141.619 30.616 140.883 29.904 140.339 28.992C139.811 28.064 139.547 26.984 139.547 25.752C139.547 24.456 139.819 23.304 140.363 22.296C140.907 21.288 141.635 20.504 142.547 19.944C143.475 19.384 144.491 19.104 145.595 19.104C146.731 19.104 147.755 19.36 148.667 19.872C149.579 20.384 150.299 21.096 150.827 22.008C151.371 22.92 151.643 24 151.643 25.248C151.643 26.56 151.379 27.72 150.851 28.728C150.339 29.72 149.627 30.496 148.715 31.056C147.819 31.6 146.795 31.872 145.643 31.872ZM145.763 30.408C146.483 30.408 147.035 30.184 147.419 29.736C147.803 29.288 148.067 28.72 148.211 28.032C148.371 27.328 148.451 26.608 148.451 25.872C148.451 25.248 148.395 24.616 148.283 23.976C148.187 23.336 148.027 22.76 147.803 22.248C147.579 21.72 147.283 21.304 146.915 21C146.547 20.68 146.099 20.52 145.571 20.52C144.867 20.536 144.307 20.768 143.891 21.216C143.475 21.664 143.171 22.232 142.979 22.92C142.803 23.608 142.715 24.336 142.715 25.104C142.715 25.968 142.819 26.816 143.027 27.648C143.235 28.464 143.563 29.136 144.011 29.664C144.459 30.176 145.043 30.424 145.763 30.408Z" fill="#3F9783"/>
</svg>
