<svg width="56" height="56" viewBox="0 0 56 56" fill="none" xmlns="http://www.w3.org/2000/svg">
<path d="M20.7093 27.048H13.2213C13.4373 25.632 13.8933 24.54 14.5893 23.772C15.3093 22.98 16.2573 22.584 17.4333 22.584C18.1293 22.584 18.7173 22.764 19.1973 23.124C19.6773 23.46 20.0373 23.964 20.2773 24.636C20.5413 25.284 20.6853 26.088 20.7093 27.048Z" fill="#FEFEFD"/>
<path fill-rule="evenodd" clip-rule="evenodd" d="M28 56C43.464 56 56 43.464 56 28C56 12.536 43.464 0 28 0C12.536 0 0 12.536 0 28C0 43.464 12.536 56 28 56ZM12.5373 38.424C13.8813 39.192 15.4173 39.576 17.1453 39.576C17.9613 39.576 18.8493 39.456 19.8093 39.216C20.7693 39 21.7293 38.58 22.6893 37.956C23.6493 37.332 24.5253 36.444 25.3173 35.292L23.9493 34.032C23.4453 34.656 22.8693 35.184 22.2213 35.616C21.5733 36.024 20.9133 36.336 20.2413 36.552C19.5933 36.744 18.9813 36.84 18.4053 36.84C17.1093 36.84 16.0653 36.516 15.2733 35.868C14.4813 35.196 13.9053 34.296 13.5453 33.168C13.2093 32.016 13.0413 30.696 13.0413 29.208L25.1373 28.992C25.1613 27.408 24.9453 26.064 24.4893 24.96C24.0573 23.856 23.4693 22.968 22.7253 22.296C21.9813 21.624 21.1413 21.144 20.2053 20.856C19.2693 20.568 18.2973 20.424 17.2893 20.424C15.4893 20.424 13.9053 20.88 12.5373 21.792C11.1933 22.68 10.1493 23.856 9.4053 25.32C8.6613 26.784 8.2893 28.356 8.2893 30.036C8.2893 31.98 8.6613 33.672 9.4053 35.112C10.1493 36.528 11.1933 37.632 12.5373 38.424ZM27.9475 37.092V39H36.6955V36.696C36.4075 36.696 36.0355 36.708 35.5795 36.732C35.1475 36.732 34.7395 36.756 34.3555 36.804C34.4275 36.3 34.4635 35.784 34.4635 35.256C34.4875 34.704 34.4995 34.236 34.4995 33.852L34.5355 26.76V25.824C34.5355 25.512 34.5235 25.212 34.4995 24.924C34.9555 24.444 35.5195 24.048 36.1915 23.736C36.8635 23.424 37.5475 23.256 38.2435 23.232C39.4195 23.232 40.2595 23.664 40.7635 24.528C41.2915 25.368 41.5555 26.652 41.5555 28.38L41.5915 33.492C41.5915 34.188 41.5555 34.812 41.4835 35.364C41.4115 35.916 41.2195 36.348 40.9075 36.66C40.6195 36.948 40.1275 37.092 39.4315 37.092V39H48.1795V36.696C47.8915 36.696 47.5315 36.708 47.0995 36.732C46.6675 36.732 46.2475 36.756 45.8395 36.804C45.9115 36.3 45.9475 35.784 45.9475 35.256C45.9715 34.704 45.9835 34.236 45.9835 33.852V28.416C45.9835 25.632 45.5155 23.604 44.5795 22.332C43.6435 21.06 42.0955 20.424 39.9355 20.424C39.3835 20.424 38.7835 20.52 38.1355 20.712C37.4875 20.904 36.8395 21.168 36.1915 21.504C35.5675 21.816 35.0155 22.176 34.5355 22.584L34.4275 21.828C34.4035 21.636 34.3915 21.456 34.3915 21.288C34.3915 21.12 34.3675 20.904 34.3195 20.64H32.8075C32.6395 20.784 32.3635 20.94 31.9795 21.108C31.5955 21.276 31.0555 21.42 30.3595 21.54C29.6635 21.636 28.7755 21.684 27.6955 21.684V24.024C28.0075 24 28.4035 23.976 28.8835 23.952C29.3875 23.928 29.8315 23.904 30.2155 23.88C30.1675 24.384 30.1315 24.876 30.1075 25.356C30.0835 25.836 30.0715 26.292 30.0715 26.724V33.492C30.0715 34.188 30.0355 34.812 29.9635 35.364C29.8915 35.916 29.7115 36.348 29.4235 36.66C29.1355 36.948 28.6435 37.092 27.9475 37.092Z" fill="#FEFEFD"/>
</svg>
