<svg width="193" height="28" viewBox="0 0 193 28" fill="none" xmlns="http://www.w3.org/2000/svg">
<path d="M47.4411 28C45.4298 28 43.6997 27.5739 42.2508 26.7216C40.8105 25.8608 39.7025 24.6676 38.9269 23.1421C38.1599 21.6165 37.7764 19.8608 37.7764 17.875C37.7764 15.8636 38.1642 14.0994 38.9397 12.5824C39.7238 11.0568 40.836 9.8679 42.2764 9.01563C43.7167 8.15484 45.4298 7.72444 47.4156 7.72444C49.1286 7.72444 50.6286 8.03552 51.9156 8.65767C53.2025 9.27983 54.221 10.1534 54.971 11.2784C55.721 12.4034 56.1343 13.7244 56.211 15.2415H51.0718C50.9269 14.2614 50.5434 13.473 49.9213 12.8764C49.3076 12.2713 48.5022 11.9688 47.5051 11.9688C46.6613 11.9688 45.9241 12.1989 45.2934 12.6591C44.6713 13.1108 44.1855 13.7713 43.836 14.6406C43.4866 15.5099 43.3119 16.5625 43.3119 17.7983C43.3119 19.0511 43.4823 20.1165 43.8232 20.9943C44.1727 21.8722 44.6627 22.5412 45.2934 23.0014C45.9241 23.4617 46.6613 23.6918 47.5051 23.6918C48.1272 23.6918 48.6855 23.5639 49.1798 23.3082C49.6826 23.0526 50.096 22.6818 50.4198 22.196C50.7522 21.7017 50.9696 21.1094 51.0718 20.419H56.211C56.1258 21.919 55.7167 23.2401 54.9838 24.3821C54.2593 25.5156 53.2579 26.402 51.9795 27.0412C50.7011 27.6804 49.1883 28 47.4411 28Z" fill="#FDFDFE"/>
<path d="M68.5701 28C66.5843 28 64.8669 27.5781 63.4181 26.7344C61.9777 25.8821 60.8655 24.6974 60.0814 23.1804C59.2973 21.6548 58.9053 19.8864 58.9053 17.875C58.9053 15.8466 59.2973 14.0739 60.0814 12.5568C60.8655 11.0313 61.9777 9.8466 63.4181 9.00285C64.8669 8.15057 66.5843 7.72444 68.5701 7.72444C70.5558 7.72444 72.2689 8.15057 73.7093 9.00285C75.1581 9.8466 76.2746 11.0313 77.0587 12.5568C77.8428 14.0739 78.2348 15.8466 78.2348 17.875C78.2348 19.8864 77.8428 21.6548 77.0587 23.1804C76.2746 24.6974 75.1581 25.8821 73.7093 26.7344C72.2689 27.5781 70.5558 28 68.5701 28ZM68.5956 23.7813C69.499 23.7813 70.2533 23.5256 70.8584 23.0142C71.4635 22.4943 71.9195 21.7869 72.2263 20.8921C72.5416 19.9972 72.6993 18.9787 72.6993 17.8367C72.6993 16.6946 72.5416 15.6761 72.2263 14.7813C71.9195 13.8864 71.4635 13.179 70.8584 12.6591C70.2533 12.1392 69.499 11.8793 68.5956 11.8793C67.6837 11.8793 66.9166 12.1392 66.2945 12.6591C65.6809 13.179 65.2164 13.8864 64.901 14.7813C64.5942 15.6761 64.4408 16.6946 64.4408 17.8367C64.4408 18.9787 64.5942 19.9972 64.901 20.8921C65.2164 21.7869 65.6809 22.4943 66.2945 23.0142C66.9166 23.5256 67.6837 23.7813 68.5956 23.7813Z" fill="#FDFDFE"/>
<path d="M87.222 16.2642V27.6165H81.776V7.98012H86.9664V11.4446H87.1965C87.6311 10.3026 88.3598 9.39915 89.3826 8.73438C90.4053 8.06109 91.6453 7.72444 93.1027 7.72444C94.4664 7.72444 95.6553 8.02273 96.6695 8.61932C97.6837 9.21591 98.472 10.0682 99.0345 11.1761C99.597 12.2756 99.8783 13.5881 99.8783 15.1136V27.6165H94.4323V16.0852C94.4408 14.8835 94.134 13.946 93.5118 13.2727C92.8897 12.5909 92.0331 12.25 90.9422 12.25C90.2093 12.25 89.5615 12.4077 88.999 12.723C88.4451 13.0384 88.0104 13.4986 87.6951 14.1037C87.3882 14.7003 87.2306 15.4205 87.222 16.2642Z" fill="#FDFDFE"/>
<path d="M114.615 7.98012V12.071H102.79V7.98012H114.615ZM105.475 3.27557H110.921V21.5824C110.921 22.0852 110.997 22.4773 111.151 22.7585C111.304 23.0313 111.517 23.223 111.79 23.3338C112.071 23.4446 112.395 23.5 112.761 23.5C113.017 23.5 113.273 23.4787 113.529 23.4361C113.784 23.3849 113.98 23.3466 114.117 23.321L114.973 27.3736C114.7 27.4588 114.317 27.5568 113.823 27.6676C113.328 27.7869 112.727 27.8594 112.02 27.8849C110.707 27.9361 109.557 27.7614 108.568 27.3608C107.588 26.9602 106.825 26.3381 106.28 25.4943C105.734 24.6506 105.466 23.5852 105.475 22.2983V3.27557Z" fill="#FDFDFE"/>
<path d="M123.762 27.9872C122.509 27.9872 121.393 27.7699 120.413 27.3352C119.433 26.8921 118.657 26.2401 118.086 25.3793C117.524 24.5099 117.242 23.4276 117.242 22.1321C117.242 21.0412 117.443 20.125 117.843 19.3835C118.244 18.6421 118.789 18.0455 119.479 17.5938C120.17 17.1421 120.954 16.8011 121.832 16.571C122.718 16.3409 123.647 16.179 124.619 16.0852C125.761 15.9659 126.681 15.8551 127.38 15.7528C128.079 15.6421 128.586 15.4801 128.901 15.2671C129.217 15.054 129.374 14.7386 129.374 14.321V14.2443C129.374 13.4347 129.119 12.8082 128.607 12.3651C128.105 11.9219 127.389 11.7003 126.46 11.7003C125.479 11.7003 124.7 11.9176 124.12 12.3523C123.541 12.7784 123.157 13.3153 122.97 13.9631L117.933 13.554C118.188 12.3608 118.691 11.3296 119.441 10.4602C120.191 9.58239 121.158 8.9091 122.343 8.44035C123.536 7.96307 124.917 7.72444 126.485 7.72444C127.576 7.72444 128.62 7.85228 129.617 8.10796C130.623 8.36364 131.514 8.75995 132.289 9.29688C133.073 9.83381 133.691 10.5242 134.143 11.3679C134.595 12.2031 134.82 13.2046 134.82 14.3722V27.6165H129.656V24.8935H129.502C129.187 25.5071 128.765 26.0483 128.237 26.5171C127.708 26.9773 127.073 27.3395 126.332 27.6037C125.59 27.8594 124.734 27.9872 123.762 27.9872ZM125.322 24.2287C126.123 24.2287 126.83 24.071 127.444 23.7557C128.058 23.4318 128.539 22.9972 128.889 22.4517C129.238 21.9063 129.413 21.2884 129.413 20.598V18.5142C129.242 18.625 129.008 18.7273 128.71 18.821C128.42 18.9063 128.092 18.9872 127.725 19.0639C127.359 19.1321 126.992 19.196 126.626 19.2557C126.259 19.3068 125.927 19.3537 125.629 19.3963C124.989 19.4901 124.431 19.6392 123.954 19.8438C123.477 20.0483 123.106 20.3253 122.842 20.6747C122.578 21.0156 122.445 21.4418 122.445 21.9531C122.445 22.6946 122.714 23.2614 123.251 23.6534C123.796 24.0369 124.487 24.2287 125.322 24.2287Z" fill="#FDFDFE"/>
<path d="M147.918 28C145.906 28 144.176 27.5739 142.727 26.7216C141.287 25.8608 140.179 24.6676 139.404 23.1421C138.636 21.6165 138.253 19.8608 138.253 17.875C138.253 15.8636 138.641 14.0994 139.416 12.5824C140.2 11.0568 141.313 9.8679 142.753 9.01563C144.193 8.15484 145.906 7.72444 147.892 7.72444C149.605 7.72444 151.105 8.03552 152.392 8.65767C153.679 9.27983 154.698 10.1534 155.448 11.2784C156.198 12.4034 156.611 13.7244 156.688 15.2415H151.548C151.403 14.2614 151.02 13.473 150.398 12.8764C149.784 12.2713 148.979 11.9688 147.982 11.9688C147.138 11.9688 146.401 12.1989 145.77 12.6591C145.148 13.1108 144.662 13.7713 144.313 14.6406C143.963 15.5099 143.788 16.5625 143.788 17.7983C143.788 19.0511 143.959 20.1165 144.3 20.9943C144.649 21.8722 145.139 22.5412 145.77 23.0014C146.401 23.4617 147.138 23.6918 147.982 23.6918C148.604 23.6918 149.162 23.5639 149.656 23.3082C150.159 23.0526 150.573 22.6818 150.896 22.196C151.229 21.7017 151.446 21.1094 151.548 20.419H156.688C156.602 21.919 156.193 23.2401 155.46 24.3821C154.736 25.5156 153.734 26.402 152.456 27.0412C151.178 27.6804 149.665 28 147.918 28Z" fill="#FDFDFE"/>
<path d="M170.619 7.98012V12.071H158.794V7.98012H170.619ZM161.478 3.27557H166.924V21.5824C166.924 22.0852 167.001 22.4773 167.155 22.7585C167.308 23.0313 167.521 23.223 167.794 23.3338C168.075 23.4446 168.399 23.5 168.765 23.5C169.021 23.5 169.277 23.4787 169.532 23.4361C169.788 23.3849 169.984 23.3466 170.12 23.321L170.977 27.3736C170.704 27.4588 170.321 27.5568 169.826 27.6676C169.332 27.7869 168.731 27.8594 168.024 27.8849C166.711 27.9361 165.561 27.7614 164.572 27.3608C163.592 26.9602 162.829 26.3381 162.284 25.4943C161.738 24.6506 161.47 23.5852 161.478 22.2983V3.27557Z" fill="#FDFDFE"/>
<path d="M182.828 28C180.842 28 179.125 27.5781 177.676 26.7344C176.236 25.8821 175.123 24.6974 174.339 23.1804C173.555 21.6548 173.163 19.8864 173.163 17.875C173.163 15.8466 173.555 14.0739 174.339 12.5568C175.123 11.0313 176.236 9.8466 177.676 9.00285C179.125 8.15057 180.842 7.72444 182.828 7.72444C184.814 7.72444 186.527 8.15057 187.967 9.00285C189.416 9.8466 190.532 11.0313 191.316 12.5568C192.101 14.0739 192.493 15.8466 192.493 17.875C192.493 19.8864 192.101 21.6548 191.316 23.1804C190.532 24.6974 189.416 25.8821 187.967 26.7344C186.527 27.5781 184.814 28 182.828 28ZM182.853 23.7813C183.757 23.7813 184.511 23.5256 185.116 23.0142C185.721 22.4943 186.177 21.7869 186.484 20.8921C186.799 19.9972 186.957 18.9787 186.957 17.8367C186.957 16.6946 186.799 15.6761 186.484 14.7813C186.177 13.8864 185.721 13.179 185.116 12.6591C184.511 12.1392 183.757 11.8793 182.853 11.8793C181.942 11.8793 181.174 12.1392 180.552 12.6591C179.939 13.179 179.474 13.8864 179.159 14.7813C178.852 15.6761 178.699 16.6946 178.699 17.8367C178.699 18.9787 178.852 19.9972 179.159 20.8921C179.474 21.7869 179.939 22.4943 180.552 23.0142C181.174 23.5256 181.942 23.7813 182.853 23.7813Z" fill="#FDFDFE"/>
<path d="M34.7914 7.98012V27.6165H30.3425L23.2474 17.2997H23.1323V27.6165H17.8013V7.98012H22.3269L29.307 18.2585H29.4604V7.98012H34.7914Z" fill="#FDFDFE"/>
<path d="M0.395691 7.96649H14.5357V11.9665H0.395691V7.96649Z" fill="#FDFDFE"/>
<path d="M0.395691 15.7865H14.5357V19.7865H0.395691V15.7865Z" fill="#FDFDFE"/>
<path d="M0.395691 23.6065H14.5357V27.6065H0.395691V23.6065Z" fill="#FDFDFE"/>
</svg>
