<svg width="48" height="48" viewBox="0 0 48 48" fill="none" xmlns="http://www.w3.org/2000/svg">
<path d="M18.861 24.032H13.869C14.013 23.088 14.317 22.36 14.781 21.848C15.261 21.32 15.893 21.056 16.677 21.056C17.141 21.056 17.533 21.176 17.853 21.416C18.173 21.64 18.413 21.976 18.573 22.424C18.749 22.856 18.845 23.392 18.861 24.032Z" fill="#3F9783"/>
<path fill-rule="evenodd" clip-rule="evenodd" d="M8 0C3.58172 0 0 3.58172 0 8V40C0 44.4183 3.58172 48 8 48H40C44.4183 48 48 44.4183 48 40V8C48 3.58172 44.4183 0 40 0H8ZM13.413 31.616C14.309 32.128 15.333 32.384 16.485 32.384C17.029 32.384 17.621 32.304 18.261 32.144C18.901 32 19.541 31.72 20.181 31.304C20.821 30.888 21.405 30.296 21.933 29.528L21.021 28.688C20.685 29.104 20.301 29.456 19.869 29.744C19.437 30.016 18.997 30.224 18.549 30.368C18.117 30.496 17.709 30.56 17.325 30.56C16.461 30.56 15.765 30.344 15.237 29.912C14.709 29.464 14.325 28.864 14.085 28.112C13.861 27.344 13.749 26.464 13.749 25.472L21.813 25.328C21.829 24.272 21.685 23.376 21.381 22.64C21.093 21.904 20.701 21.312 20.205 20.864C19.709 20.416 19.149 20.096 18.525 19.904C17.901 19.712 17.253 19.616 16.581 19.616C15.381 19.616 14.325 19.92 13.413 20.528C12.517 21.12 11.821 21.904 11.325 22.88C10.829 23.856 10.581 24.904 10.581 26.024C10.581 27.32 10.829 28.448 11.325 29.408C11.821 30.352 12.517 31.088 13.413 31.616ZM23.6865 30.728V32H29.5185V30.464C29.3265 30.464 29.0785 30.472 28.7745 30.488C28.4865 30.488 28.2145 30.504 27.9585 30.536C28.0065 30.2 28.0305 29.856 28.0305 29.504C28.0465 29.136 28.0545 28.824 28.0545 28.568L28.0785 23.84V23.216C28.0785 23.008 28.0705 22.808 28.0545 22.616C28.3585 22.296 28.7345 22.032 29.1825 21.824C29.6305 21.616 30.0865 21.504 30.5505 21.488C31.3345 21.488 31.8945 21.776 32.2305 22.352C32.5825 22.912 32.7585 23.768 32.7585 24.92L32.7825 28.328C32.7825 28.792 32.7585 29.208 32.7105 29.576C32.6625 29.944 32.5345 30.232 32.3265 30.44C32.1345 30.632 31.8065 30.728 31.3425 30.728V32H37.1745V30.464C36.9825 30.464 36.7425 30.472 36.4545 30.488C36.1665 30.488 35.8865 30.504 35.6145 30.536C35.6625 30.2 35.6865 29.856 35.6865 29.504C35.7025 29.136 35.7105 28.824 35.7105 28.568V24.944C35.7105 23.088 35.3985 21.736 34.7745 20.888C34.1505 20.04 33.1185 19.616 31.6785 19.616C31.3105 19.616 30.9105 19.68 30.4785 19.808C30.0465 19.936 29.6145 20.112 29.1825 20.336C28.7665 20.544 28.3985 20.784 28.0785 21.056L28.0065 20.552C27.9905 20.424 27.9825 20.304 27.9825 20.192C27.9825 20.08 27.9665 19.936 27.9345 19.76H26.9265C26.8145 19.856 26.6305 19.96 26.3745 20.072C26.1185 20.184 25.7585 20.28 25.2945 20.36C24.8305 20.424 24.2385 20.456 23.5185 20.456V22.016C23.7265 22 23.9905 21.984 24.3105 21.968C24.6465 21.952 24.9425 21.936 25.1985 21.92C25.1665 22.256 25.1425 22.584 25.1265 22.904C25.1105 23.224 25.1025 23.528 25.1025 23.816V28.328C25.1025 28.792 25.0785 29.208 25.0305 29.576C24.9825 29.944 24.8625 30.232 24.6705 30.44C24.4785 30.632 24.1505 30.728 23.6865 30.728Z" fill="#3F9783"/>
</svg>
