<svg width="193" height="28" viewBox="0 0 193 28" fill="none" xmlns="http://www.w3.org/2000/svg">
<path d="M47.6011 28C45.5898 28 43.8596 27.5739 42.4108 26.7216C40.9704 25.8608 39.8625 24.6676 39.0869 23.1421C38.3199 21.6165 37.9363 19.8608 37.9363 17.875C37.9363 15.8636 38.3241 14.0994 39.0997 12.5824C39.8838 11.0568 40.996 9.8679 42.4363 9.01563C43.8767 8.15484 45.5898 7.72444 47.5756 7.72444C49.2886 7.72444 50.7886 8.03552 52.0756 8.65767C53.3625 9.27983 54.3809 10.1534 55.1309 11.2784C55.8809 12.4034 56.2943 13.7244 56.371 15.2415H51.2318C51.0869 14.2614 50.7034 13.473 50.0812 12.8764C49.4676 12.2713 48.6622 11.9688 47.665 11.9688C46.8213 11.9688 46.0841 12.1989 45.4534 12.6591C44.8312 13.1108 44.3454 13.7713 43.996 14.6406C43.6466 15.5099 43.4719 16.5625 43.4719 17.7983C43.4719 19.0511 43.6423 20.1165 43.9832 20.9943C44.3327 21.8722 44.8227 22.5412 45.4534 23.0014C46.0841 23.4617 46.8213 23.6918 47.665 23.6918C48.2872 23.6918 48.8454 23.5639 49.3398 23.3082C49.8426 23.0526 50.2559 22.6818 50.5798 22.196C50.9122 21.7017 51.1295 21.1094 51.2318 20.419H56.371C56.2858 21.919 55.8767 23.2401 55.1437 24.3821C54.4193 25.5156 53.4179 26.402 52.1395 27.0412C50.8611 27.6804 49.3483 28 47.6011 28Z" fill="#FDFDFE"/>
<path d="M68.73 28C66.7442 28 65.0269 27.5781 63.578 26.7344C62.1377 25.8821 61.0255 24.6974 60.2414 23.1804C59.4573 21.6548 59.0653 19.8864 59.0653 17.875C59.0653 15.8466 59.4573 14.0739 60.2414 12.5568C61.0255 11.0313 62.1377 9.8466 63.578 9.00285C65.0269 8.15057 66.7442 7.72444 68.73 7.72444C70.7158 7.72444 72.4289 8.15057 73.8692 9.00285C75.3181 9.8466 76.4346 11.0313 77.2187 12.5568C78.0028 14.0739 78.3948 15.8466 78.3948 17.875C78.3948 19.8864 78.0028 21.6548 77.2187 23.1804C76.4346 24.6974 75.3181 25.8821 73.8692 26.7344C72.4289 27.5781 70.7158 28 68.73 28ZM68.7556 23.7813C69.659 23.7813 70.4133 23.5256 71.0184 23.0142C71.6235 22.4943 72.0795 21.7869 72.3863 20.8921C72.7016 19.9972 72.8593 18.9787 72.8593 17.8367C72.8593 16.6946 72.7016 15.6761 72.3863 14.7813C72.0795 13.8864 71.6235 13.179 71.0184 12.6591C70.4133 12.1392 69.659 11.8793 68.7556 11.8793C67.8437 11.8793 67.0766 12.1392 66.4545 12.6591C65.8408 13.179 65.3763 13.8864 65.061 14.7813C64.7542 15.6761 64.6008 16.6946 64.6008 17.8367C64.6008 18.9787 64.7542 19.9972 65.061 20.8921C65.3763 21.7869 65.8408 22.4943 66.4545 23.0142C67.0766 23.5256 67.8437 23.7813 68.7556 23.7813Z" fill="#FDFDFE"/>
<path d="M87.382 16.2642V27.6165H81.936V7.98012H87.1263V11.4446H87.3564C87.7911 10.3026 88.5198 9.39915 89.5425 8.73438C90.5653 8.06109 91.8053 7.72444 93.2627 7.72444C94.6263 7.72444 95.8153 8.02273 96.8295 8.61932C97.8437 9.21591 98.632 10.0682 99.1945 11.1761C99.757 12.2756 100.038 13.5881 100.038 15.1136V27.6165H94.5922V16.0852C94.6008 14.8835 94.2939 13.946 93.6718 13.2727C93.0496 12.5909 92.1931 12.25 91.1022 12.25C90.3692 12.25 89.7215 12.4077 89.159 12.723C88.605 13.0384 88.1704 13.4986 87.855 14.1037C87.5482 14.7003 87.3905 15.4205 87.382 16.2642Z" fill="#FDFDFE"/>
<path d="M114.775 7.98012V12.071H102.95V7.98012H114.775ZM105.634 3.27557H111.081V21.5824C111.081 22.0852 111.157 22.4773 111.311 22.7585C111.464 23.0313 111.677 23.223 111.95 23.3338C112.231 23.4446 112.555 23.5 112.921 23.5C113.177 23.5 113.433 23.4787 113.688 23.4361C113.944 23.3849 114.14 23.3466 114.277 23.321L115.133 27.3736C114.86 27.4588 114.477 27.5568 113.983 27.6676C113.488 27.7869 112.887 27.8594 112.18 27.8849C110.867 27.9361 109.717 27.7614 108.728 27.3608C107.748 26.9602 106.985 26.3381 106.44 25.4943C105.894 24.6506 105.626 23.5852 105.634 22.2983V3.27557Z" fill="#FDFDFE"/>
<path d="M123.922 27.9872C122.669 27.9872 121.553 27.7699 120.573 27.3352C119.593 26.8921 118.817 26.2401 118.246 25.3793C117.684 24.5099 117.402 23.4276 117.402 22.1321C117.402 21.0412 117.603 20.125 118.003 19.3835C118.404 18.6421 118.949 18.0455 119.639 17.5938C120.33 17.1421 121.114 16.8011 121.992 16.571C122.878 16.3409 123.807 16.179 124.779 16.0852C125.921 15.9659 126.841 15.8551 127.54 15.7528C128.239 15.6421 128.746 15.4801 129.061 15.2671C129.377 15.054 129.534 14.7386 129.534 14.321V14.2443C129.534 13.4347 129.279 12.8082 128.767 12.3651C128.264 11.9219 127.549 11.7003 126.62 11.7003C125.639 11.7003 124.86 11.9176 124.28 12.3523C123.701 12.7784 123.317 13.3153 123.13 13.9631L118.093 13.554C118.348 12.3608 118.851 11.3296 119.601 10.4602C120.351 9.58239 121.318 8.9091 122.503 8.44035C123.696 7.96307 125.077 7.72444 126.645 7.72444C127.736 7.72444 128.78 7.85228 129.777 8.10796C130.783 8.36364 131.674 8.75995 132.449 9.29688C133.233 9.83381 133.851 10.5242 134.303 11.3679C134.755 12.2031 134.98 13.2046 134.98 14.3722V27.6165H129.816V24.8935H129.662C129.347 25.5071 128.925 26.0483 128.397 26.5171C127.868 26.9773 127.233 27.3395 126.492 27.6037C125.75 27.8594 124.894 27.9872 123.922 27.9872ZM125.482 24.2287C126.283 24.2287 126.99 24.071 127.604 23.7557C128.218 23.4318 128.699 22.9972 129.049 22.4517C129.398 21.9063 129.573 21.2884 129.573 20.598V18.5142C129.402 18.625 129.168 18.7273 128.87 18.821C128.58 18.9063 128.252 18.9872 127.885 19.0639C127.519 19.1321 127.152 19.196 126.786 19.2557C126.419 19.3068 126.087 19.3537 125.789 19.3963C125.149 19.4901 124.591 19.6392 124.114 19.8438C123.637 20.0483 123.266 20.3253 123.002 20.6747C122.737 21.0156 122.605 21.4418 122.605 21.9531C122.605 22.6946 122.874 23.2614 123.411 23.6534C123.956 24.0369 124.647 24.2287 125.482 24.2287Z" fill="#FDFDFE"/>
<path d="M148.078 28C146.066 28 144.336 27.5739 142.887 26.7216C141.447 25.8608 140.339 24.6676 139.563 23.1421C138.796 21.6165 138.413 19.8608 138.413 17.875C138.413 15.8636 138.801 14.0994 139.576 12.5824C140.36 11.0568 141.473 9.8679 142.913 9.01563C144.353 8.15484 146.066 7.72444 148.052 7.72444C149.765 7.72444 151.265 8.03552 152.552 8.65767C153.839 9.27983 154.858 10.1534 155.608 11.2784C156.358 12.4034 156.771 13.7244 156.848 15.2415H151.708C151.563 14.2614 151.18 13.473 150.558 12.8764C149.944 12.2713 149.139 11.9688 148.142 11.9688C147.298 11.9688 146.561 12.1989 145.93 12.6591C145.308 13.1108 144.822 13.7713 144.473 14.6406C144.123 15.5099 143.948 16.5625 143.948 17.7983C143.948 19.0511 144.119 20.1165 144.46 20.9943C144.809 21.8722 145.299 22.5412 145.93 23.0014C146.561 23.4617 147.298 23.6918 148.142 23.6918C148.764 23.6918 149.322 23.5639 149.816 23.3082C150.319 23.0526 150.733 22.6818 151.056 22.196C151.389 21.7017 151.606 21.1094 151.708 20.419H156.848C156.762 21.919 156.353 23.2401 155.62 24.3821C154.896 25.5156 153.894 26.402 152.616 27.0412C151.338 27.6804 149.825 28 148.078 28Z" fill="#FDFDFE"/>
<path d="M170.779 7.98012V12.071H158.954V7.98012H170.779ZM161.638 3.27557H167.084V21.5824C167.084 22.0852 167.161 22.4773 167.315 22.7585C167.468 23.0313 167.681 23.223 167.954 23.3338C168.235 23.4446 168.559 23.5 168.925 23.5C169.181 23.5 169.437 23.4787 169.692 23.4361C169.948 23.3849 170.144 23.3466 170.28 23.321L171.137 27.3736C170.864 27.4588 170.481 27.5568 169.986 27.6676C169.492 27.7869 168.891 27.8594 168.184 27.8849C166.871 27.9361 165.721 27.7614 164.732 27.3608C163.752 26.9602 162.989 26.3381 162.444 25.4943C161.898 24.6506 161.63 23.5852 161.638 22.2983V3.27557Z" fill="#FDFDFE"/>
<path d="M182.988 28C181.002 28 179.285 27.5781 177.836 26.7344C176.396 25.8821 175.283 24.6974 174.499 23.1804C173.715 21.6548 173.323 19.8864 173.323 17.875C173.323 15.8466 173.715 14.0739 174.499 12.5568C175.283 11.0313 176.396 9.8466 177.836 9.00285C179.285 8.15057 181.002 7.72444 182.988 7.72444C184.974 7.72444 186.687 8.15057 188.127 9.00285C189.576 9.8466 190.692 11.0313 191.476 12.5568C192.261 14.0739 192.653 15.8466 192.653 17.875C192.653 19.8864 192.261 21.6548 191.476 23.1804C190.692 24.6974 189.576 25.8821 188.127 26.7344C186.687 27.5781 184.974 28 182.988 28ZM183.013 23.7813C183.917 23.7813 184.671 23.5256 185.276 23.0142C185.881 22.4943 186.337 21.7869 186.644 20.8921C186.959 19.9972 187.117 18.9787 187.117 17.8367C187.117 16.6946 186.959 15.6761 186.644 14.7813C186.337 13.8864 185.881 13.179 185.276 12.6591C184.671 12.1392 183.917 11.8793 183.013 11.8793C182.101 11.8793 181.334 12.1392 180.712 12.6591C180.099 13.179 179.634 13.8864 179.319 14.7813C179.012 15.6761 178.859 16.6946 178.859 17.8367C178.859 18.9787 179.012 19.9972 179.319 20.8921C179.634 21.7869 180.099 22.4943 180.712 23.0142C181.334 23.5256 182.101 23.7813 183.013 23.7813Z" fill="#FDFDFE"/>
<path d="M34.6113 7.98012V27.6165H30.1625L23.0673 17.2997H22.9523V27.6165H17.6213V7.98012H22.1469L29.127 18.2585H29.2804V7.98012H34.6113Z" fill="#FDFDFE"/>
<path d="M0.805664 23.3165H15.0557V27.6165H0.805664V23.3165Z" fill="#FDFDFE"/>
<path d="M0.805664 15.6165H15.0557V19.9165H0.805664V15.6165Z" fill="#FDFDFE"/>
<path d="M0.805664 7.96649H15.0557V12.2665H0.805664V7.96649Z" fill="#FDFDFE"/>
</svg>
