<svg width="209" height="56" viewBox="0 0 209 56" fill="none" xmlns="http://www.w3.org/2000/svg">
<path d="M71.116 39.576C69.508 39.576 68.02 39.216 66.652 38.496C65.308 37.776 64.228 36.732 63.412 35.364C62.62 33.972 62.224 32.304 62.224 30.36C62.224 29.04 62.452 27.792 62.908 26.616C63.364 25.416 64 24.36 64.816 23.448C65.656 22.512 66.652 21.78 67.804 21.252C68.956 20.7 70.228 20.424 71.62 20.424C73.084 20.424 74.32 20.652 75.328 21.108C76.336 21.54 77.104 22.128 77.632 22.872C78.16 23.592 78.424 24.36 78.424 25.176C78.424 25.824 78.232 26.388 77.848 26.868C77.488 27.348 76.96 27.6 76.264 27.624C75.448 27.648 74.872 27.42 74.536 26.94C74.224 26.436 74.068 25.968 74.068 25.536C74.068 25.296 74.104 25.044 74.176 24.78C74.248 24.492 74.368 24.228 74.536 23.988C74.368 23.556 74.092 23.244 73.708 23.052C73.324 22.836 72.928 22.692 72.52 22.62C72.112 22.548 71.788 22.524 71.548 22.548C70.228 22.596 69.136 23.196 68.272 24.348C67.408 25.5 66.976 27.18 66.976 29.388C66.976 30.708 67.156 31.932 67.516 33.06C67.9 34.164 68.476 35.064 69.244 35.76C70.012 36.432 70.996 36.78 72.196 36.804C73.252 36.828 74.272 36.576 75.256 36.048C76.24 35.496 77.044 34.788 77.668 33.924L79.108 35.256C78.316 36.384 77.464 37.26 76.552 37.884C75.64 38.508 74.716 38.94 73.78 39.18C72.868 39.444 71.98 39.576 71.116 39.576Z" fill="#FEFEFD"/>
<path d="M90.1414 39.576C88.4374 39.576 86.8894 39.204 85.4974 38.46C84.1054 37.692 83.0014 36.624 82.1854 35.256C81.3934 33.864 80.9974 32.244 80.9974 30.396C80.9974 28.452 81.4054 26.724 82.2214 25.212C83.0374 23.7 84.1294 22.524 85.4974 21.684C86.8894 20.844 88.4134 20.424 90.0694 20.424C91.7734 20.424 93.3094 20.808 94.6774 21.576C96.0454 22.344 97.1254 23.412 97.9174 24.78C98.7334 26.148 99.1414 27.768 99.1414 29.64C99.1414 31.608 98.7454 33.348 97.9534 34.86C97.1854 36.348 96.1174 37.512 94.7494 38.352C93.4054 39.168 91.8694 39.576 90.1414 39.576ZM90.3214 37.38C91.4014 37.38 92.2294 37.044 92.8054 36.372C93.3814 35.7 93.7774 34.848 93.9934 33.816C94.2334 32.76 94.3534 31.68 94.3534 30.576C94.3534 29.64 94.2694 28.692 94.1014 27.732C93.9574 26.772 93.7174 25.908 93.3814 25.14C93.0454 24.348 92.6014 23.724 92.0494 23.268C91.4974 22.788 90.8254 22.548 90.0334 22.548C88.9774 22.572 88.1374 22.92 87.5134 23.592C86.8894 24.264 86.4334 25.116 86.1454 26.148C85.8814 27.18 85.7494 28.272 85.7494 29.424C85.7494 30.72 85.9054 31.992 86.2174 33.24C86.5294 34.464 87.0214 35.472 87.6934 36.264C88.3654 37.032 89.2414 37.404 90.3214 37.38Z" fill="#FEFEFD"/>
<path d="M101.887 39V37.092C102.583 37.092 103.075 36.948 103.363 36.66C103.651 36.348 103.831 35.916 103.903 35.364C103.975 34.812 104.011 34.188 104.011 33.492V26.724C104.011 26.292 104.023 25.836 104.047 25.356C104.071 24.876 104.107 24.384 104.155 23.88C103.771 23.904 103.327 23.928 102.823 23.952C102.343 23.976 101.947 24 101.635 24.024V21.684C102.715 21.684 103.603 21.636 104.299 21.54C104.995 21.42 105.535 21.276 105.919 21.108C106.303 20.94 106.579 20.784 106.747 20.64H108.259C108.307 20.904 108.331 21.12 108.331 21.288C108.331 21.456 108.343 21.636 108.367 21.828C108.391 21.996 108.427 22.248 108.475 22.584C108.955 22.176 109.507 21.816 110.131 21.504C110.779 21.168 111.427 20.904 112.075 20.712C112.723 20.52 113.323 20.424 113.875 20.424C116.035 20.424 117.583 21.06 118.519 22.332C119.455 23.604 119.923 25.632 119.923 28.416V33.852C119.923 34.236 119.911 34.704 119.887 35.256C119.887 35.784 119.851 36.3 119.779 36.804C120.187 36.756 120.607 36.732 121.039 36.732C121.471 36.708 121.831 36.696 122.119 36.696V39H113.371V37.092C114.067 37.092 114.559 36.948 114.847 36.66C115.159 36.348 115.351 35.916 115.423 35.364C115.495 34.812 115.531 34.188 115.531 33.492L115.495 28.38C115.495 26.652 115.231 25.368 114.703 24.528C114.199 23.664 113.359 23.232 112.183 23.232C111.487 23.256 110.803 23.424 110.131 23.736C109.459 24.048 108.895 24.444 108.439 24.924C108.463 25.212 108.475 25.512 108.475 25.824C108.475 26.136 108.475 26.448 108.475 26.76L108.439 33.852C108.439 34.236 108.427 34.704 108.403 35.256C108.403 35.784 108.367 36.3 108.295 36.804C108.679 36.756 109.087 36.732 109.519 36.732C109.975 36.708 110.347 36.696 110.635 36.696V39H101.887Z" fill="#FEFEFD"/>
<path d="M131.196 39.576C130.524 39.576 129.864 39.492 129.216 39.324C128.592 39.156 128.016 38.844 127.488 38.388C126.984 37.932 126.576 37.26 126.264 36.372C125.952 35.46 125.796 34.26 125.796 32.772L125.868 23.484L123.312 23.52V21C124.032 20.976 124.728 20.736 125.4 20.28C126.072 19.8 126.66 19.176 127.164 18.408C127.668 17.64 128.004 16.824 128.172 15.96H130.368L130.332 21H135.408V23.304L130.332 23.412L130.296 32.664C130.296 33.384 130.356 34.056 130.476 34.68C130.62 35.28 130.86 35.76 131.196 36.12C131.556 36.48 132.036 36.66 132.636 36.66C133.092 36.66 133.608 36.516 134.184 36.228C134.784 35.94 135.384 35.364 135.984 34.5L137.46 35.832C136.86 36.744 136.236 37.452 135.588 37.956C134.964 38.46 134.352 38.832 133.752 39.072C133.176 39.312 132.66 39.456 132.204 39.504C131.748 39.552 131.412 39.576 131.196 39.576Z" fill="#FEFEFD"/>
<path d="M149.063 39C148.991 38.64 148.943 38.34 148.919 38.1C148.919 37.836 148.907 37.536 148.883 37.2C148.067 38.016 147.191 38.616 146.255 39C145.343 39.384 144.395 39.576 143.411 39.576C141.779 39.576 140.519 39.132 139.631 38.244C138.767 37.356 138.335 36.264 138.335 34.968C138.335 33.816 138.647 32.844 139.271 32.052C139.895 31.236 140.711 30.576 141.719 30.072C142.727 29.544 143.843 29.148 145.067 28.884C146.291 28.596 147.503 28.44 148.703 28.416V26.436C148.703 25.74 148.619 25.104 148.451 24.528C148.307 23.928 148.031 23.46 147.623 23.124C147.215 22.764 146.615 22.584 145.823 22.584C145.295 22.608 144.755 22.728 144.203 22.944C143.675 23.136 143.255 23.448 142.943 23.88C143.135 24.096 143.255 24.336 143.303 24.6C143.351 24.84 143.375 25.056 143.375 25.248C143.375 25.68 143.207 26.136 142.871 26.616C142.535 27.072 141.995 27.288 141.251 27.264C140.603 27.24 140.099 27.012 139.739 26.58C139.403 26.148 139.235 25.632 139.235 25.032C139.235 24.12 139.559 23.328 140.207 22.656C140.879 21.96 141.779 21.42 142.907 21.036C144.035 20.628 145.295 20.424 146.687 20.424C148.751 20.424 150.335 20.964 151.439 22.044C152.543 23.124 153.083 24.852 153.059 27.228C153.059 28.068 153.059 28.836 153.059 29.532C153.059 30.204 153.047 30.888 153.023 31.584C153.023 32.256 153.023 33.012 153.023 33.852C153.023 34.212 153.011 34.668 152.987 35.22C152.963 35.748 152.927 36.276 152.879 36.804C153.311 36.756 153.743 36.732 154.175 36.732C154.631 36.708 155.003 36.684 155.291 36.66V39H149.063ZM148.667 30.54C147.947 30.588 147.239 30.708 146.543 30.9C145.847 31.068 145.223 31.308 144.671 31.62C144.119 31.932 143.675 32.328 143.339 32.808C143.027 33.264 142.883 33.792 142.907 34.392C142.931 35.136 143.171 35.688 143.627 36.048C144.083 36.384 144.611 36.552 145.211 36.552C145.907 36.552 146.531 36.408 147.083 36.12C147.659 35.832 148.187 35.448 148.667 34.968C148.667 34.728 148.667 34.476 148.667 34.212C148.667 33.948 148.667 33.684 148.667 33.42C148.667 33.084 148.667 32.664 148.667 32.16C148.667 31.656 148.667 31.116 148.667 30.54Z" fill="#FEFEFD"/>
<path d="M166.108 39.576C164.5 39.576 163.012 39.216 161.644 38.496C160.3 37.776 159.22 36.732 158.404 35.364C157.612 33.972 157.216 32.304 157.216 30.36C157.216 29.04 157.444 27.792 157.9 26.616C158.356 25.416 158.992 24.36 159.808 23.448C160.648 22.512 161.644 21.78 162.796 21.252C163.948 20.7 165.22 20.424 166.612 20.424C168.076 20.424 169.312 20.652 170.32 21.108C171.328 21.54 172.096 22.128 172.624 22.872C173.152 23.592 173.416 24.36 173.416 25.176C173.416 25.824 173.224 26.388 172.84 26.868C172.48 27.348 171.952 27.6 171.256 27.624C170.44 27.648 169.864 27.42 169.528 26.94C169.216 26.436 169.06 25.968 169.06 25.536C169.06 25.296 169.096 25.044 169.168 24.78C169.24 24.492 169.36 24.228 169.528 23.988C169.36 23.556 169.084 23.244 168.7 23.052C168.316 22.836 167.92 22.692 167.512 22.62C167.104 22.548 166.78 22.524 166.54 22.548C165.22 22.596 164.128 23.196 163.264 24.348C162.4 25.5 161.968 27.18 161.968 29.388C161.968 30.708 162.148 31.932 162.508 33.06C162.892 34.164 163.468 35.064 164.236 35.76C165.004 36.432 165.988 36.78 167.188 36.804C168.244 36.828 169.264 36.576 170.248 36.048C171.232 35.496 172.036 34.788 172.66 33.924L174.1 35.256C173.308 36.384 172.456 37.26 171.544 37.884C170.632 38.508 169.708 38.94 168.772 39.18C167.86 39.444 166.972 39.576 166.108 39.576Z" fill="#FEFEFD"/>
<path d="M183.298 39.576C182.626 39.576 181.966 39.492 181.318 39.324C180.694 39.156 180.118 38.844 179.59 38.388C179.086 37.932 178.678 37.26 178.366 36.372C178.054 35.46 177.898 34.26 177.898 32.772L177.97 23.484L175.414 23.52V21C176.134 20.976 176.83 20.736 177.502 20.28C178.174 19.8 178.762 19.176 179.266 18.408C179.77 17.64 180.106 16.824 180.274 15.96H182.47L182.434 21H187.51V23.304L182.434 23.412L182.398 32.664C182.398 33.384 182.458 34.056 182.578 34.68C182.722 35.28 182.962 35.76 183.298 36.12C183.658 36.48 184.138 36.66 184.738 36.66C185.194 36.66 185.71 36.516 186.286 36.228C186.886 35.94 187.486 35.364 188.086 34.5L189.562 35.832C188.962 36.744 188.338 37.452 187.69 37.956C187.066 38.46 186.454 38.832 185.854 39.072C185.278 39.312 184.762 39.456 184.306 39.504C183.85 39.552 183.514 39.576 183.298 39.576Z" fill="#FEFEFD"/>
<path d="M199.688 39.576C197.984 39.576 196.436 39.204 195.044 38.46C193.652 37.692 192.548 36.624 191.732 35.256C190.94 33.864 190.544 32.244 190.544 30.396C190.544 28.452 190.952 26.724 191.768 25.212C192.584 23.7 193.676 22.524 195.044 21.684C196.436 20.844 197.96 20.424 199.616 20.424C201.32 20.424 202.856 20.808 204.224 21.576C205.592 22.344 206.672 23.412 207.464 24.78C208.28 26.148 208.688 27.768 208.688 29.64C208.688 31.608 208.292 33.348 207.5 34.86C206.732 36.348 205.664 37.512 204.296 38.352C202.952 39.168 201.416 39.576 199.688 39.576ZM199.868 37.38C200.948 37.38 201.776 37.044 202.352 36.372C202.928 35.7 203.324 34.848 203.54 33.816C203.78 32.76 203.9 31.68 203.9 30.576C203.9 29.64 203.816 28.692 203.648 27.732C203.504 26.772 203.264 25.908 202.928 25.14C202.592 24.348 202.148 23.724 201.596 23.268C201.044 22.788 200.372 22.548 199.58 22.548C198.524 22.572 197.684 22.92 197.06 23.592C196.436 24.264 195.98 25.116 195.692 26.148C195.428 27.18 195.296 28.272 195.296 29.424C195.296 30.72 195.452 31.992 195.764 33.24C196.076 34.464 196.568 35.472 197.24 36.264C197.912 37.032 198.788 37.404 199.868 37.38Z" fill="#FEFEFD"/>
<path d="M20.7093 27.048H13.2213C13.4373 25.632 13.8933 24.54 14.5893 23.772C15.3093 22.98 16.2573 22.584 17.4333 22.584C18.1293 22.584 18.7173 22.764 19.1973 23.124C19.6773 23.46 20.0373 23.964 20.2773 24.636C20.5413 25.284 20.6853 26.088 20.7093 27.048Z" fill="#FEFEFD"/>
<path fill-rule="evenodd" clip-rule="evenodd" d="M28 56C43.464 56 56 43.464 56 28C56 12.536 43.464 0 28 0C12.536 0 0 12.536 0 28C0 43.464 12.536 56 28 56ZM12.5373 38.424C13.8813 39.192 15.4173 39.576 17.1453 39.576C17.9613 39.576 18.8493 39.456 19.8093 39.216C20.7693 39 21.7293 38.58 22.6893 37.956C23.6493 37.332 24.5253 36.444 25.3173 35.292L23.9493 34.032C23.4453 34.656 22.8693 35.184 22.2213 35.616C21.5733 36.024 20.9133 36.336 20.2413 36.552C19.5933 36.744 18.9813 36.84 18.4053 36.84C17.1093 36.84 16.0653 36.516 15.2733 35.868C14.4813 35.196 13.9053 34.296 13.5453 33.168C13.2093 32.016 13.0413 30.696 13.0413 29.208L25.1373 28.992C25.1613 27.408 24.9453 26.064 24.4893 24.96C24.0573 23.856 23.4693 22.968 22.7253 22.296C21.9813 21.624 21.1413 21.144 20.2053 20.856C19.2693 20.568 18.2973 20.424 17.2893 20.424C15.4893 20.424 13.9053 20.88 12.5373 21.792C11.1933 22.68 10.1493 23.856 9.4053 25.32C8.6613 26.784 8.2893 28.356 8.2893 30.036C8.2893 31.98 8.6613 33.672 9.4053 35.112C10.1493 36.528 11.1933 37.632 12.5373 38.424ZM27.9475 37.092V39H36.6955V36.696C36.4075 36.696 36.0355 36.708 35.5795 36.732C35.1475 36.732 34.7395 36.756 34.3555 36.804C34.4275 36.3 34.4635 35.784 34.4635 35.256C34.4875 34.704 34.4995 34.236 34.4995 33.852L34.5355 26.76V25.824C34.5355 25.512 34.5235 25.212 34.4995 24.924C34.9555 24.444 35.5195 24.048 36.1915 23.736C36.8635 23.424 37.5475 23.256 38.2435 23.232C39.4195 23.232 40.2595 23.664 40.7635 24.528C41.2915 25.368 41.5555 26.652 41.5555 28.38L41.5915 33.492C41.5915 34.188 41.5555 34.812 41.4835 35.364C41.4115 35.916 41.2195 36.348 40.9075 36.66C40.6195 36.948 40.1275 37.092 39.4315 37.092V39H48.1795V36.696C47.8915 36.696 47.5315 36.708 47.0995 36.732C46.6675 36.732 46.2475 36.756 45.8395 36.804C45.9115 36.3 45.9475 35.784 45.9475 35.256C45.9715 34.704 45.9835 34.236 45.9835 33.852V28.416C45.9835 25.632 45.5155 23.604 44.5795 22.332C43.6435 21.06 42.0955 20.424 39.9355 20.424C39.3835 20.424 38.7835 20.52 38.1355 20.712C37.4875 20.904 36.8395 21.168 36.1915 21.504C35.5675 21.816 35.0155 22.176 34.5355 22.584L34.4275 21.828C34.4035 21.636 34.3915 21.456 34.3915 21.288C34.3915 21.12 34.3675 20.904 34.3195 20.64H32.8075C32.6395 20.784 32.3635 20.94 31.9795 21.108C31.5955 21.276 31.0555 21.42 30.3595 21.54C29.6635 21.636 28.7755 21.684 27.6955 21.684V24.024C28.0075 24 28.4035 23.976 28.8835 23.952C29.3875 23.928 29.8315 23.904 30.2155 23.88C30.1675 24.384 30.1315 24.876 30.1075 25.356C30.0835 25.836 30.0715 26.292 30.0715 26.724V33.492C30.0715 34.188 30.0355 34.812 29.9635 35.364C29.8915 35.916 29.7115 36.348 29.4235 36.66C29.1355 36.948 28.6435 37.092 27.9475 37.092Z" fill="#FEFEFD"/>
</svg>
